<svg width="260" height="50" viewBox="0 0 260 50" fill="none" xmlns="http://www.w3.org/2000/svg">
<path d="M0 31C0 27.6863 2.68629 25 6 25H20V39C20 42.3137 17.3137 45 14 45H0V31Z" fill="#EEBFFF"/>
<path d="M0 11C0 7.68629 2.68629 5 6 5H20V25H0V11Z" fill="#EEBFFF"/>
<path d="M20 11C20 7.68629 22.6863 5 26 5H40V19C40 22.3137 37.3137 25 34 25H20V11Z" fill="#EEBFFF"/>
<path d="M20 25H40V39C40 42.3137 37.3137 45 34 45H20V25Z" fill="#EEBFFF"/>
<circle cx="20" cy="25" r="8" fill="#4A105F"/>
<path d="M51.44 30.16H59.88C60.0133 30.9867 60.4 31.7067 61.04 32.32C61.68 32.9333 62.5333 33.4133 63.6 33.76C64.6933 34.08 65.9733 34.24 67.44 34.24C69.4667 34.24 71.0667 33.9867 72.24 33.48C73.4133 32.9467 74 32.1733 74 31.16C74 30.3867 73.6667 29.7867 73 29.36C72.3333 28.9333 71.0533 28.6267 69.16 28.44L63.56 27.92C59.4267 27.5467 56.4267 26.6133 54.56 25.12C52.6933 23.6 51.76 21.56 51.76 19C51.76 16.92 52.36 15.16 53.56 13.72C54.7867 12.28 56.4933 11.2 58.68 10.48C60.8933 9.73333 63.4667 9.36 66.4 9.36C69.28 9.36 71.84 9.77333 74.08 10.6C76.32 11.4 78.0933 12.5467 79.4 14.04C80.7333 15.5333 81.4533 17.2667 81.56 19.24H73.16C73.0533 18.52 72.7067 17.9067 72.12 17.4C71.56 16.8667 70.7867 16.4667 69.8 16.2C68.8133 15.9067 67.6267 15.76 66.24 15.76C64.3733 15.76 62.8933 16.0133 61.8 16.52C60.7067 17 60.16 17.72 60.16 18.68C60.16 19.3733 60.48 19.9333 61.12 20.36C61.7867 20.7867 62.9733 21.08 64.68 21.24L70.64 21.84C73.4933 22.1067 75.7733 22.5733 77.48 23.24C79.1867 23.88 80.4267 24.7733 81.2 25.92C81.9733 27.0667 82.36 28.4933 82.36 30.2C82.36 32.3067 81.7333 34.1467 80.48 35.72C79.2267 37.2667 77.4667 38.48 75.2 39.36C72.9333 40.2133 70.2933 40.64 67.28 40.64C64.1867 40.64 61.4533 40.2133 59.08 39.36C56.7333 38.48 54.8933 37.2533 53.56 35.68C52.2267 34.08 51.52 32.24 51.44 30.16ZM99.4338 40.64C96.5004 40.64 93.9404 40.1467 91.7538 39.16C89.5671 38.1467 87.8604 36.7333 86.6338 34.92C85.4071 33.08 84.7938 30.9733 84.7938 28.6C84.7938 26.1733 85.4071 24.0533 86.6338 22.24C87.8604 20.4267 89.5671 19.0133 91.7538 18C93.9404 16.9867 96.5004 16.48 99.4338 16.48C102.34 16.48 104.887 16.9867 107.074 18C109.287 19.0133 111.007 20.4267 112.234 22.24C113.46 24.0533 114.074 26.1733 114.074 28.6C114.074 30.9733 113.46 33.08 112.234 34.92C111.007 36.7333 109.287 38.1467 107.074 39.16C104.887 40.1467 102.34 40.64 99.4338 40.64ZM99.4338 34.6C100.767 34.6 101.9 34.36 102.834 33.88C103.794 33.4 104.527 32.7067 105.034 31.8C105.54 30.8933 105.794 29.8267 105.794 28.6C105.794 27.32 105.54 26.24 105.034 25.36C104.527 24.4533 103.794 23.76 102.834 23.28C101.9 22.8 100.767 22.56 99.4338 22.56C98.1004 22.56 96.9538 22.8 95.9938 23.28C95.0338 23.76 94.3004 24.4533 93.7938 25.36C93.2871 26.24 93.0338 27.3067 93.0338 28.56C93.0338 29.8133 93.2871 30.8933 93.7938 31.8C94.3004 32.7067 95.0338 33.4 95.9938 33.88C96.9538 34.36 98.1004 34.6 99.4338 34.6ZM151.237 27.44C150.944 30.08 150.037 32.4 148.517 34.4C146.997 36.3733 144.997 37.9067 142.517 39C140.064 40.0933 137.237 40.64 134.037 40.64C130.544 40.64 127.491 39.9867 124.877 38.68C122.264 37.3733 120.224 35.5467 118.757 33.2C117.317 30.8533 116.597 28.12 116.597 25C116.597 21.88 117.317 19.1467 118.757 16.8C120.224 14.4533 122.264 12.6267 124.877 11.32C127.491 10.0133 130.544 9.36 134.037 9.36C137.237 9.36 140.064 9.90667 142.517 11C144.997 12.0933 146.997 13.64 148.517 15.64C150.037 17.6133 150.944 19.92 151.237 22.56H142.917C142.651 21.28 142.131 20.2 141.357 19.32C140.584 18.4133 139.571 17.72 138.317 17.24C137.091 16.76 135.664 16.52 134.037 16.52C132.171 16.52 130.557 16.8667 129.197 17.56C127.837 18.2267 126.797 19.2 126.077 20.48C125.357 21.7333 124.997 23.24 124.997 25C124.997 26.76 125.357 28.28 126.077 29.56C126.797 30.8133 127.837 31.7867 129.197 32.48C130.557 33.1467 132.171 33.48 134.037 33.48C135.664 33.48 137.091 33.2533 138.317 32.8C139.571 32.3467 140.584 31.6667 141.357 30.76C142.131 29.8533 142.651 28.7467 142.917 27.44H151.237ZM154.584 16.8L158.704 17.6L162.784 16.8V40H154.584V16.8ZM158.664 14.92C157.25 14.92 156.104 14.5733 155.224 13.88C154.344 13.16 153.904 12.1867 153.904 10.96C153.904 9.76 154.344 8.8 155.224 8.08C156.104 7.36 157.25 7 158.664 7C160.13 7 161.29 7.36 162.144 8.08C163.024 8.8 163.464 9.76 163.464 10.96C163.464 12.1867 163.024 13.16 162.144 13.88C161.29 14.5733 160.13 14.92 158.664 14.92ZM166.199 17.16H174.519L175.879 25.32V40H167.719V24.84L166.199 17.16ZM186.599 16.8V23.76C185.799 23.6 185.039 23.4933 184.319 23.44C183.626 23.36 182.986 23.32 182.399 23.32C181.226 23.32 180.146 23.56 179.159 24.04C178.172 24.4933 177.372 25.2533 176.759 26.32C176.172 27.3867 175.879 28.8133 175.879 30.6L174.319 28.68C174.532 27.0267 174.852 25.48 175.279 24.04C175.706 22.5733 176.279 21.28 176.999 20.16C177.746 19.0133 178.666 18.12 179.759 17.48C180.852 16.8133 182.186 16.48 183.759 16.48C184.212 16.48 184.679 16.5067 185.159 16.56C185.639 16.6133 186.119 16.6933 186.599 16.8ZM216.043 30.36C215.829 32.4133 215.083 34.2133 213.803 35.76C212.523 37.3067 210.856 38.5067 208.803 39.36C206.776 40.2133 204.496 40.64 201.963 40.64C199.163 40.64 196.696 40.1333 194.563 39.12C192.429 38.1067 190.763 36.6933 189.563 34.88C188.363 33.0667 187.763 30.9733 187.763 28.6C187.763 26.2 188.363 24.0933 189.563 22.28C190.763 20.4667 192.429 19.0533 194.563 18.04C196.696 17 199.163 16.48 201.963 16.48C204.496 16.48 206.776 16.92 208.803 17.8C210.856 18.6533 212.523 19.8533 213.803 21.4C215.083 22.92 215.829 24.72 216.043 26.8H207.923C207.629 25.44 206.949 24.4 205.883 23.68C204.816 22.9333 203.509 22.56 201.963 22.56C200.763 22.56 199.709 22.8 198.803 23.28C197.923 23.7333 197.229 24.4133 196.723 25.32C196.243 26.2 196.003 27.2933 196.003 28.6C196.003 29.88 196.243 30.9733 196.723 31.88C197.229 32.76 197.923 33.44 198.803 33.92C199.709 34.3733 200.763 34.6 201.963 34.6C203.509 34.6 204.816 34.2133 205.883 33.44C206.976 32.6667 207.656 31.64 207.923 30.36H216.043ZM219.271 9.2H227.471V40H219.271V9.2ZM245.367 40.64C242.593 40.64 240.113 40.1333 237.927 39.12C235.767 38.1067 234.06 36.6933 232.807 34.88C231.553 33.04 230.927 30.9067 230.927 28.48C230.927 26.1067 231.527 24.0267 232.727 22.24C233.927 20.4267 235.567 19.0133 237.647 18C239.753 16.9867 242.127 16.48 244.767 16.48C247.513 16.48 249.847 17.08 251.767 18.28C253.713 19.4533 255.207 21.12 256.247 23.28C257.313 25.44 257.847 27.9867 257.847 30.92H237.527V26H253.247L250.567 27.72C250.46 26.5467 250.167 25.56 249.687 24.76C249.207 23.9333 248.567 23.3067 247.767 22.88C246.993 22.4533 246.06 22.24 244.967 22.24C243.767 22.24 242.74 22.48 241.887 22.96C241.033 23.44 240.367 24.1067 239.887 24.96C239.407 25.7867 239.167 26.76 239.167 27.88C239.167 29.32 239.487 30.5467 240.127 31.56C240.793 32.5467 241.753 33.3067 243.007 33.84C244.287 34.3733 245.847 34.64 247.687 34.64C249.367 34.64 251.033 34.4267 252.687 34C254.367 33.5467 255.887 32.92 257.247 32.12V37.32C255.673 38.3867 253.873 39.2133 251.847 39.8C249.847 40.36 247.687 40.64 245.367 40.64Z" fill="#111111"/>
</svg>
